<svg width="37" height="25" viewBox="0 0 37 25" fill="none" xmlns="http://www.w3.org/2000/svg">
<path d="M34.2598 10.0876H1.9315C0.877974 10.0876 0.0239258 10.9417 0.0239258 11.9952V12.196C0.0239258 13.2495 0.877974 14.1036 1.9315 14.1036H34.2598C35.3133 14.1036 36.1674 13.2495 36.1674 12.196V11.9952C36.1674 10.9417 35.3133 10.0876 34.2598 10.0876Z" fill="#FFDE9F"/>
<path d="M34.2598 20.1274H1.9315C0.877974 20.1274 0.0239258 20.9815 0.0239258 22.035V22.2358C0.0239258 23.2893 0.877974 24.1434 1.9315 24.1434H34.2598C35.3133 24.1434 36.1674 23.2893 36.1674 22.2358V22.035C36.1674 20.9815 35.3133 20.1274 34.2598 20.1274Z" fill="#FFDE9F"/>
<path d="M34.2598 0.0478516H1.9315C0.877974 0.0478516 0.0239258 0.901899 0.0239258 1.95542V2.15622C0.0239258 3.20974 0.877974 4.06379 1.9315 4.06379H34.2598C35.3133 4.06379 36.1674 3.20974 36.1674 2.15622V1.95542C36.1674 0.901899 35.3133 0.0478516 34.2598 0.0478516Z" fill="#FFDE9F"/>
</svg>
