<svg width="27" height="30" viewBox="0 0 27 30" fill="none" xmlns="http://www.w3.org/2000/svg">
<path d="M12.8128 29.5833C12.5016 29.5844 12.194 29.5157 11.9128 29.3823C11.6316 29.2489 11.3839 29.0542 11.1878 28.8125L1.1253 16.3125C0.81888 15.9397 0.651367 15.4721 0.651367 14.9896C0.651367 14.507 0.81888 14.0394 1.1253 13.6667L11.542 1.16667C11.8956 0.74122 12.4037 0.473669 12.9546 0.422878C13.5055 0.372087 14.054 0.542216 14.4795 0.895838C14.9049 1.24946 15.1725 1.75761 15.2233 2.3085C15.274 2.85938 15.1039 3.40789 14.7503 3.83334L5.4378 15L14.4378 26.1667C14.6926 26.4725 14.8544 26.8448 14.9041 27.2397C14.9539 27.6346 14.8895 28.0355 14.7185 28.395C14.5476 28.7544 14.2772 29.0573 13.9395 29.2679C13.6018 29.4785 13.2108 29.588 12.8128 29.5833Z" fill="#FFDE9F"/>
<path d="M23.8128 29.5833C23.5016 29.5844 23.194 29.5157 22.9128 29.3823C22.6316 29.2489 22.3839 29.0542 22.1878 28.8125L12.1253 16.3125C11.8189 15.9397 11.6514 15.4721 11.6514 14.9896C11.6514 14.507 11.8189 14.0394 12.1253 13.6667L22.542 1.16667C22.8956 0.74122 23.4037 0.473669 23.9546 0.422878C24.5055 0.372087 25.054 0.542216 25.4795 0.895838C25.9049 1.24946 26.1725 1.75761 26.2233 2.3085C26.274 2.85938 26.1039 3.40789 25.7503 3.83334L16.4378 15L25.4378 26.1667C25.6926 26.4725 25.8544 26.8448 25.9041 27.2397C25.9539 27.6346 25.8895 28.0355 25.7185 28.395C25.5476 28.7544 25.2772 29.0573 24.9395 29.2679C24.6018 29.4785 24.2108 29.588 23.8128 29.5833Z" fill="#FFDE9F"/>
</svg>
