<svg width="60" height="60" viewBox="0 0 60 60" fill="none" xmlns="http://www.w3.org/2000/svg">
<path fill-rule="evenodd" clip-rule="evenodd" d="M25.6643 0.358759C18.8315 1.37909 14.0816 3.79032 8.9743 8.83137C6.02163 11.7454 4.82271 13.3517 3.30199 16.4297C-0.562929 24.2516 -1.04148 32.9965 1.90056 42.0298C2.32732 43.3403 2.58532 43.5222 4.01866 43.5222C5.39327 43.5222 5.59718 43.3955 5.3119 42.7186C1.05258 32.6044 2.42396 21.0579 8.83652 13.0399C14.0478 6.52437 21.1812 3.11301 29.5944 3.11301C37.2193 3.11301 43.0951 5.52425 48.6093 10.9161C56.6179 18.7468 59.1535 30.0095 55.2882 40.5843L54.1965 43.5718L55.8407 43.4322C57.3776 43.3018 57.5394 43.1333 58.3176 40.852C64.4351 22.9167 53.2593 3.8615 34.6805 0.548866C30.8849 -0.127529 29.1631 -0.164265 25.6643 0.358759ZM29.28 7.6517C29.1238 8.2459 28.7687 8.44289 28.1463 8.28125C27.6312 8.14763 27.0001 8.35473 26.6834 8.76157C26.3773 9.15464 25.6065 9.54312 24.9708 9.62394C24.3175 9.70751 23.8149 10.0707 23.8149 10.4601C23.8149 11.0396 24.8422 11.1489 30.288 11.1489C35.7337 11.1489 36.7611 11.0396 36.7611 10.4601C36.7611 10.0776 36.2553 9.70063 35.6232 9.612C34.9977 9.5243 34.2472 9.12893 33.9564 8.73356C33.6586 8.32901 33.1052 8.13753 32.6905 8.29549C32.2087 8.47917 31.8545 8.26702 31.6677 7.68155C31.2997 6.53034 29.581 6.50876 29.28 7.6517ZM24.1542 17.9294C20.1294 21.9377 18.96 23.3791 18.96 24.331C18.96 25.9212 19.7072 26.3791 20.0549 25.0019C20.3573 23.8062 29.3758 14.8996 30.049 15.1324C30.2871 15.2146 32.5707 17.3279 35.1244 19.8286L39.7665 24.376V33.4897V42.6038H38.1482H36.5299L36.5281 37.897C36.5267 34.0421 36.3635 32.9249 35.6256 31.7227C33.2065 27.7828 28.1158 27.4072 24.9939 30.9384C23.6054 32.5089 23.5837 32.6103 23.5837 37.5687V42.6038H21.7453H19.9065L19.7803 34.6827L19.6536 26.7616L18.0353 25.963C16.7985 25.3528 16.3625 24.8118 16.1858 23.667C15.9755 22.3055 15.8076 22.1696 14.3364 22.1696C12.8226 22.1696 12.7088 22.2734 12.5747 23.7768C12.4592 25.0685 12.1415 25.519 10.9565 26.0728L9.48152 26.7616L9.35575 35.3715L9.22999 43.9814H16.8692H24.5084V39.1144C24.5084 35.7163 24.7202 33.8047 25.2094 32.7802C26.8161 29.418 31.3662 28.7779 33.8713 31.562C35.086 32.9116 35.1428 33.1898 35.1428 37.7519C35.1428 40.379 35.2691 42.8554 35.4235 43.2549C35.6635 43.8767 36.7986 43.9814 43.2837 43.9814H50.8633V34.1087C50.8633 27.8329 50.695 24.236 50.4009 24.236C50.1466 24.236 49.9386 24.9592 49.9386 25.8432C49.9386 27.1386 49.761 27.4504 49.0235 27.4504C48.2223 27.4504 48.1723 27.3121 48.6222 26.3318C49.5483 24.3127 48.9033 23.7768 45.5461 23.7768C42.1888 23.7768 41.5438 24.3127 42.47 26.3318C42.9198 27.3121 42.8699 27.4504 42.0686 27.4504C41.2817 27.4504 41.1536 27.1363 41.1536 25.209V22.9672L35.8114 17.8619C32.8731 15.0535 30.2168 12.7561 29.9089 12.7561C29.6005 12.7561 27.0107 15.0842 24.1542 17.9294ZM44.1544 19.723C43.9907 20.145 44.128 20.9716 44.46 21.5598L45.0634 22.6288L45.2197 21.6089C45.3057 21.0478 45.1679 20.2212 44.914 19.7722C44.4896 19.0214 44.4281 19.0172 44.1544 19.723ZM28.4177 20.7714C27.7015 21.4822 27.2826 22.4226 27.2826 23.3194V24.7411L29.9412 24.6033C32.5582 24.4679 32.5984 24.4449 32.5041 23.1385C32.4116 21.8643 30.7924 19.644 29.9551 19.644C29.7336 19.644 29.0419 20.1515 28.4177 20.7714ZM42.5407 21.2186C42.5407 22.0874 44.0651 23.5977 44.2838 22.9452C44.5021 22.2959 43.5584 20.5624 42.9869 20.5624C42.7414 20.5624 42.5407 20.8577 42.5407 21.2186ZM48.1321 21.4014C47.5079 22.5599 47.4843 23.3176 48.0729 23.3176C48.8187 23.3176 49.6228 21.4427 49.0994 20.9229C48.7914 20.6171 48.4687 20.7764 48.1321 21.4014ZM31.3473 23.1077C31.1952 23.2588 30.4202 23.3162 29.6254 23.2354C28.206 23.0908 28.1939 23.0692 28.9453 22.0103L29.71 20.9321L30.6667 21.8826C31.1933 22.4052 31.4994 22.9567 31.3473 23.1077ZM46.0857 21.3279C45.916 21.496 45.7773 22.03 45.7773 22.514C45.7773 23.7047 46.8939 23.2809 47.0811 22.019C47.224 21.0533 46.7163 20.7011 46.0857 21.3279ZM15.2611 24.7186C15.2611 25.8762 15.5325 26.2321 16.8234 26.768C17.6825 27.1243 18.5148 27.7507 18.6729 28.1598C18.8306 28.5685 18.96 31.9858 18.96 35.7535V42.6038H14.556H10.1519L10.2791 35.1451L10.4062 27.6859L12.1401 26.8759C13.5758 26.205 13.874 25.8289 13.874 24.6915C13.874 23.7763 14.1056 23.3176 14.5675 23.3176C15.0327 23.3176 15.2611 23.7796 15.2611 24.7186ZM47.6267 25.5217C47.6267 26.819 45.0597 27.4724 44.0203 26.4401C43.0428 25.4694 43.416 25.1544 45.5461 25.1544C46.6904 25.1544 47.6267 25.3197 47.6267 25.5217ZM49.9386 35.7159V42.6038H45.5461H41.1536V35.7159V28.8279H45.5461H49.9386V35.7159ZM42.8491 32.3486C42.6794 32.5167 42.5407 33.5462 42.5407 34.6358C42.5407 36.3349 42.6961 36.6554 43.6328 36.8891C44.2334 37.0388 45.4296 37.0944 46.2914 37.0126C47.8334 36.8662 47.8602 36.8257 47.9976 34.4531L48.1377 32.0423H45.6473C44.2778 32.0423 43.0183 32.1801 42.8491 32.3486ZM47.0793 34.4531C47.2148 35.6217 47.1029 35.7159 45.5766 35.7159C44.0452 35.7159 43.9278 35.6158 43.9278 34.3094C43.9278 32.9988 44.0304 32.9125 45.4305 33.0466C46.6826 33.1664 46.9577 33.4011 47.0793 34.4531ZM13.2896 33.9939C12.3953 34.6684 11.6079 36.6177 11.8983 37.4379C12.1332 38.1018 16.908 38.2497 17.3089 37.6055C17.7246 36.9373 16.6149 34.353 15.7054 33.8694C14.5999 33.2821 14.2069 33.3023 13.2896 33.9939ZM15.5515 36.5521C15.1432 36.6333 14.3849 36.6333 13.8657 36.5521C12.9617 36.4111 12.9553 36.3578 13.7057 35.3003L14.4894 34.1959L15.3915 35.3003C16.1821 36.2687 16.202 36.423 15.5515 36.5521ZM25.8955 38.9302V43.558L29.9412 43.4253L33.9869 43.2926V38.9302V34.5679L29.9412 34.4352L25.8955 34.3025V38.9302ZM32.831 38.2414V41.2262H30.0568H27.2826V38.2414V35.2567H30.0568H32.831V38.2414ZM42.7802 38.9169C42.6276 39.1621 43.0026 39.4872 43.6139 39.6392C45.2488 40.047 47.758 39.7049 47.9763 39.045C48.2084 38.3438 43.2134 38.2208 42.7802 38.9169ZM11.6778 40.8818C11.8026 41.2538 12.8207 41.4558 14.5675 41.4558C16.3144 41.4558 17.3325 41.2538 17.4573 40.8818C17.5988 40.4607 16.8281 40.3078 14.5675 40.3078C12.307 40.3078 11.5363 40.4607 11.6778 40.8818ZM42.8616 40.6012C42.1838 41.2744 43.2111 41.6854 45.5734 41.6854C47.5014 41.6854 48.0891 41.5247 48.0891 40.9966C48.0891 40.4704 47.507 40.3078 45.6233 40.3078C44.2667 40.3078 43.0243 40.4401 42.8616 40.6012ZM1.05628 46.7926C0.770998 47.0759 0.647546 47.5925 0.782095 47.9406C1.14736 48.8851 58.5039 48.8851 58.8692 47.9406C59.0037 47.5925 58.8803 47.0759 58.595 46.7926C57.858 46.0606 1.79329 46.0606 1.05628 46.7926ZM8.78797 51.2734C8.78797 52.0077 13.8731 55.5063 17.2673 57.107C25.6292 61.0506 34.4377 60.961 42.8431 56.8467C44.9168 55.8314 47.6217 54.0795 48.8539 52.9536L51.0945 50.9056L49.0573 50.8877C47.6101 50.8744 46.6063 51.1825 45.5896 51.9521C36.7265 58.66 23.0131 58.666 14.0206 51.9659C12.5586 50.8767 8.78797 50.3775 8.78797 51.2734Z" fill="#FFDE9F"/>
</svg>
