<svg width="60" height="58" viewBox="0 0 60 58" fill="none" xmlns="http://www.w3.org/2000/svg">
<path fill-rule="evenodd" clip-rule="evenodd" d="M40.6645 0.171392C39.5407 0.472098 38.5708 1.17054 37.7932 2.23895C37.571 2.54423 37.5348 2.55407 37.0902 2.42985C36.2777 2.20297 34.8119 2.36434 33.9281 2.7779C32.9121 3.25345 31.9808 4.18792 31.4896 5.22492C31.1407 5.96157 31.1136 6.10735 31.1136 7.24923C31.1136 8.39053 31.1408 8.53714 31.4887 9.27179C31.6951 9.70738 32.1302 10.3452 32.4555 10.6893L33.0472 11.3149V13.0321V14.7493L32.7249 14.75C31.782 14.7519 30.8421 15.3574 30.4532 16.2131C30.2853 16.583 30.2392 16.9833 30.2372 18.0936C30.235 19.3287 30.2675 19.5687 30.4983 20.0204C30.8996 20.8057 31.4582 21.1862 32.4574 21.3546L33.3028 21.497L33.5083 22.0783C33.9592 23.3533 34.875 24.7068 35.7994 25.4643C36.3203 25.8912 36.3285 25.9088 36.3285 26.6045C36.3285 27.8183 36.4037 27.7635 32.3347 29.5173C27.5635 31.5737 27.5263 31.6103 27.4442 34.343L27.3959 35.9483L26.7938 35.4956C25.6007 34.5985 23.7156 33.8181 22.3244 33.6453L21.6213 33.558L21.559 32.6205C21.4869 31.5388 21.2502 31.039 20.6252 30.6496C20.2321 30.4046 20.0926 30.394 17.2853 30.394C14.541 30.394 14.3297 30.4092 13.9458 30.6347C13.2355 31.052 13.0079 31.5233 13.0079 32.5771C13.0079 33.4361 12.9911 33.4982 12.7443 33.545C10.5321 33.9636 9.4481 34.3446 8.22945 35.1324C7.30683 35.7286 6.06545 36.9073 5.44681 37.7742C4.95708 38.4605 4.08578 40.1307 3.95336 40.6367C3.89195 40.8715 3.8159 40.8824 2.23221 40.8824C0.629303 40.8824 0.565904 40.8917 0.287698 41.1701C0.129493 41.3283 0 41.5943 0 41.7613C0 42.1498 0.487387 42.6402 0.873641 42.6402C1.16568 42.6402 1.17189 42.6578 1.17235 43.4898C1.17271 44.1257 1.23036 44.4339 1.40158 44.7146C1.64627 45.116 2.18041 45.4527 2.57229 45.4527C2.80268 45.4527 2.81253 45.518 2.81253 47.0464C2.81253 48.8095 2.92093 49.2117 3.535 49.7284C3.72355 49.887 4.08637 50.0731 4.34125 50.1417L4.80473 50.2665V51.1995V52.1325H2.98245C0.94747 52.1325 0.627311 52.2184 0.22969 52.8706C0.0324613 53.1941 0.00082032 53.4656 0.000468755 54.8398C0 56.3054 0.0215627 56.4658 0.26719 56.8303C0.414145 57.0483 0.664694 57.2926 0.823836 57.3733C1.05259 57.4891 6.27815 57.5201 25.7522 57.5214C50.2361 57.5232 50.3926 57.5216 50.6255 57.2888C50.9745 56.9398 50.938 56.3126 50.5511 56.0083L50.2423 55.7653H26.0001H1.75783V54.8278V53.8903H30.0003H58.2427V54.8278V55.7653H56.1492C54.2085 55.7653 54.033 55.783 53.7468 56.0083C53.3598 56.3126 53.3234 56.9398 53.6724 57.2888C53.8922 57.5086 54.0618 57.523 56.397 57.5214C59.1349 57.5195 59.2906 57.4873 59.7334 56.8303C59.9791 56.4656 60.0006 56.3056 60 54.8398C59.9994 53.5089 59.9644 53.1881 59.7872 52.8963C59.5823 52.559 59.5823 52.5275 59.7878 51.9869C60.0561 51.2808 60.0559 50.878 59.7872 50.4354C59.5823 50.0981 59.5823 50.0666 59.7878 49.526C60.0619 48.8047 60.0571 48.3686 59.771 48.005C59.5431 47.7153 59.5431 47.709 59.771 47.1091C60.064 46.3381 60.0613 45.913 59.761 45.5314C59.5301 45.2377 59.5287 45.213 59.7237 44.8417C59.8352 44.6292 59.9294 44.1822 59.9339 43.8443C59.9407 43.3258 59.8923 43.1821 59.6174 42.9068C59.3041 42.593 59.2435 42.5802 57.8888 42.5425L56.4849 42.5034V41.1602C56.4849 39.8904 56.4692 39.8013 56.1972 39.5294C55.8307 39.1627 55.3814 39.1627 55.0148 39.5294C54.7426 39.8015 54.7271 39.8898 54.7271 41.1701V42.523H49.6763H44.6254L44.227 42.9215C43.7692 43.3792 43.7146 43.8114 44.0093 44.6462C44.1743 45.1142 44.173 45.196 43.9932 45.5945C43.7741 46.0805 43.8126 46.7437 44.0926 47.3049C44.2473 47.6151 44.2432 47.6743 44.0486 47.9272C43.7714 48.2878 43.7718 49.0079 44.0497 49.6197C44.2598 50.0824 44.2598 50.1024 44.0471 50.365C43.8074 50.6611 43.7586 51.3473 43.9428 51.8319L44.0571 52.1325H41.1276H38.198L38.23 42.9625L38.2621 33.7925L38.5177 33.3237C38.6583 33.0659 40.0294 31.6089 41.5646 30.0859C44.093 27.5777 44.4069 27.3048 44.8974 27.1876C45.1953 27.1165 45.5177 27.0281 45.6139 26.9912C45.7453 26.9408 45.8081 27.0447 45.8665 27.41C45.9092 27.6773 46.0436 28.0889 46.1652 28.3247C46.62 29.2069 47.0176 29.4449 50.6895 31.0324C53.0849 32.0683 54.2835 32.6472 54.4634 32.8557C54.7087 33.1397 54.7271 33.2711 54.7271 34.7418C54.7271 36.264 54.7378 36.3333 55.0148 36.6103C55.3814 36.9769 55.8307 36.9769 56.1972 36.6103C56.4751 36.3325 56.4849 36.2671 56.4849 34.6914C56.4849 32.9249 56.3702 32.3881 55.8454 31.7001C55.4524 31.1848 54.9916 30.9495 51.3286 29.3937C49.6206 28.6681 48.0948 27.9528 47.938 27.8039C47.7144 27.5917 47.642 27.3822 47.6023 26.8326L47.5515 26.1321L48.4849 25.2161C49.4687 24.2507 50.2369 23.0874 50.5645 22.067L50.7547 21.4746L51.5319 21.3415C52.3789 21.1964 52.7086 21.0021 53.2554 20.3265L53.6138 19.8838V18.0976C53.6138 16.3377 53.609 16.3044 53.2899 15.844C52.8986 15.2793 52.2448 14.8912 51.5168 14.7914L50.9771 14.7174V13.0237V11.3301L51.5093 10.7252C51.8021 10.3926 52.2107 9.77863 52.4175 9.36109C52.775 8.63921 52.7935 8.53538 52.7935 7.25169C52.7935 5.95219 52.7787 5.87203 52.3982 5.11382C51.6046 3.5326 49.9892 2.44755 48.2907 2.35497C47.8023 2.32837 47.1655 2.36282 46.8755 2.43161C46.3889 2.54692 46.3345 2.53638 46.1727 2.29544C44.933 0.450301 42.7574 -0.388535 40.6645 0.171392ZM42.9628 1.91446C43.7735 2.15528 44.4547 2.77696 44.8767 3.66115C45.3604 4.67472 45.6045 4.77362 46.6203 4.36733C48.3206 3.68705 50.0885 4.33288 50.8187 5.90074C51.0067 6.30446 51.0924 6.70267 51.0931 7.17705C51.0948 8.25377 50.8923 8.74444 50.1198 9.53441C49.7416 9.92113 49.3843 10.3597 49.3257 10.5088C49.2672 10.658 49.2192 11.4359 49.2192 12.2374V13.6946H42.0121H34.805V12.1042V10.5139L34.0578 9.78977C33.1517 8.91167 32.9169 8.47632 32.8413 7.53424C32.7588 6.5072 33.0357 5.7484 33.756 5.02827C34.7352 4.04893 36.1747 3.81865 37.5195 4.42616C38.2974 4.77761 38.5378 4.6514 39.1029 3.59541C39.9354 2.03985 41.334 1.43082 42.9628 1.91446ZM20.9014 7.94322C20.6026 8.07354 20.2736 8.51346 20.2736 8.783C20.2736 8.88882 20.3777 9.10773 20.5048 9.26933C20.7221 9.54566 20.8154 9.56629 22.0595 9.61398C23.5875 9.67246 23.9657 9.8268 24.378 10.5606C24.8003 11.3118 24.562 12.2409 23.8227 12.7262C23.5472 12.907 23.1034 12.9403 20.2794 12.9915L17.0509 13.0501L16.4352 13.3912C15.3691 13.982 14.883 14.8438 14.883 16.1433C14.883 16.8848 14.911 16.9809 15.1917 17.2017C15.589 17.5143 15.8503 17.5085 16.2337 17.1787C16.4807 16.9663 16.5602 16.7651 16.6295 16.1769C16.6972 15.6033 16.7861 15.371 17.0325 15.1243L17.3487 14.8079L20.5984 14.7481C24.3674 14.6788 24.4808 14.6522 25.429 13.6148C26.4502 12.4973 26.6322 11.0875 25.9319 9.71816C25.5558 8.98292 24.7489 8.30088 23.9831 8.07096C23.3682 7.88627 21.2348 7.79791 20.9014 7.94322ZM8.49618 14.2873C7.83359 14.4813 6.86362 15.1596 6.43354 15.7297C4.87798 17.792 5.63771 20.7714 7.99332 21.8464C8.6811 22.1602 8.85032 22.1859 10.5143 22.2285L12.2979 22.2742L12.6649 21.9073C12.9607 21.6114 13.0172 21.4785 12.9563 21.221C12.8059 20.5854 12.5436 20.4917 10.9148 20.4908C9.25075 20.4901 8.72352 20.3841 8.20168 19.945C6.96675 18.9059 7.17476 16.852 8.58407 16.1697C9.03759 15.9503 9.30349 15.9212 10.8612 15.9212C12.4679 15.9212 12.6523 15.8996 12.9335 15.6783C13.3205 15.3739 13.3569 14.7467 13.0079 14.3977C12.7913 14.1811 12.6252 14.1642 10.8107 14.1739C9.73099 14.1798 8.68954 14.2307 8.49618 14.2873ZM49.2192 17.8888C49.2192 19.6984 49.173 20.5023 49.0398 21.014C48.4799 23.1638 46.7168 24.9094 44.538 25.4714C43.3792 25.7702 39.9344 25.6803 38.983 25.3265C37.2347 24.6761 35.8825 23.341 35.1856 21.5767C34.8849 20.8156 34.871 20.6799 34.8293 18.1185L34.7858 15.4524H42.0025H49.2192V17.8888ZM37.5373 16.508C37.1702 16.6558 37.0316 16.9874 37.0316 17.7169C37.0316 18.4679 37.2568 18.8145 37.8149 18.9223C38.1158 18.9804 38.2461 18.9361 38.4887 18.6935C38.7457 18.4365 38.7894 18.2891 38.7894 17.679C38.7894 17.0774 38.7442 16.92 38.5017 16.6776C38.2009 16.3767 37.9657 16.3353 37.5373 16.508ZM45.629 16.5271C44.8432 16.9076 44.9829 18.7255 45.8118 18.9075C46.518 19.0627 46.8755 18.6309 46.8755 17.6228C46.8755 17.0809 46.8248 16.9146 46.5878 16.6776C46.2812 16.371 46.032 16.3318 45.629 16.5271ZM33.0472 18.1038V19.7005L32.6663 19.6258C32.083 19.5111 31.9925 19.2948 31.9925 18.0149C31.9925 16.9667 32.0141 16.8568 32.253 16.6896C32.3962 16.5893 32.6335 16.5071 32.7804 16.5071C33.045 16.5071 33.0472 16.5204 33.0472 18.1038ZM51.6541 16.6896C51.8949 16.8582 51.9146 16.9641 51.9146 18.0932C51.9146 19.2653 51.9028 19.3219 51.6225 19.5056C51.0565 19.8764 50.9771 19.7049 50.9771 18.1124C50.9771 16.4051 51.0448 16.2628 51.6541 16.6896ZM40.9415 16.7589C40.5443 16.9553 40.4301 17.3727 40.4301 18.6279C40.4301 20.447 40.7363 20.8431 42.1424 20.8431C43.159 20.8431 43.516 20.6298 43.516 20.0226C43.516 19.5417 43.0373 19.0853 42.5329 19.0853H42.1879V18.1608C42.1879 17.4507 42.1403 17.18 41.9828 16.9938C41.731 16.6963 41.2758 16.5935 40.9415 16.7589ZM14.7658 20.7259C14.4499 21.0417 14.4562 21.6762 14.778 21.9675C14.9868 22.1567 15.2687 22.1999 16.6237 22.2509C18.3856 22.3171 18.6642 22.4144 19.0871 23.1111C19.574 23.9136 19.4981 24.7845 18.8825 25.4572C18.3844 26.0015 17.9622 26.1166 16.4635 26.1166C15.1792 26.1166 15.0913 26.132 14.8191 26.4043C14.4478 26.7756 14.4525 27.2203 14.8319 27.5996C15.1314 27.899 15.138 27.9 16.7948 27.8519C18.3186 27.8079 18.5079 27.7776 19.0651 27.4893C19.8594 27.0784 20.4692 26.4463 20.8416 25.6478C21.7072 23.7928 20.7297 21.4547 18.7844 20.7269C18.269 20.5341 17.8706 20.4915 16.5777 20.4915C15.1564 20.4915 14.9769 20.5148 14.7658 20.7259ZM38.5551 21.7806C38.4127 21.923 38.3207 22.1712 38.3207 22.413C38.3207 22.9151 38.8594 23.417 39.9558 23.9365C40.6693 24.2747 40.8133 24.3002 42.0121 24.3002C43.209 24.3002 43.3557 24.2744 44.0629 23.9391C45.5361 23.2409 46.0728 22.4028 45.4324 21.801C45.0508 21.4426 44.621 21.4835 43.9753 21.9396C43.2752 22.4343 42.7824 22.6011 42.024 22.6002C41.197 22.5994 40.6861 22.4361 40.0121 21.9568C39.358 21.4918 38.8994 21.4363 38.5551 21.7806ZM38.9002 27.1296C39.4428 27.2805 39.7146 27.4455 40.1521 27.8897L40.7109 28.457L38.8889 30.3043C37.3298 31.8853 37.0263 32.2533 36.7856 32.8549L36.5043 33.5581L36.4716 42.8453L36.4389 52.1325H33.0438H29.6487V51.1966V50.2609L30.1712 50.1293C30.8174 49.9666 31.4697 49.3577 31.6348 48.763C31.702 48.5214 31.7571 47.6838 31.7574 46.9013L31.7581 45.4789L32.154 45.4046C32.969 45.2516 33.3968 44.5128 33.3981 43.2554C33.3986 42.7273 33.4306 42.6402 33.6235 42.6402C34.0046 42.6402 34.2207 42.5082 34.3967 42.1678C34.5976 41.7794 34.445 41.1832 34.0973 40.9971C33.9794 40.934 33.1541 40.8824 32.2633 40.8824H30.6437L30.3638 40.1499C30.2098 39.7472 29.8805 39.0655 29.632 38.6354L29.18 37.8532L29.1804 35.5885C29.1808 33.5807 29.2057 33.2828 29.4006 32.9633C29.5885 32.6553 30.0346 32.4258 32.4764 31.3813C36.6375 29.6013 37.1292 29.3391 37.5854 28.6564C37.8196 28.306 37.9926 27.8714 38.04 27.5138C38.0821 27.1965 38.1368 26.9369 38.1618 26.9369C38.1866 26.9369 38.519 27.0236 38.9002 27.1296ZM19.7814 32.8256L19.8166 33.4995H17.2912H14.7658V32.794V32.0885L17.256 32.1202L19.7463 32.1518L19.7814 32.8256ZM39.3649 35.2422C38.7859 35.7111 39.1579 36.7808 39.8999 36.7808C40.3478 36.7808 40.7816 36.3483 40.7816 35.9019C40.7816 35.1768 39.9334 34.7819 39.3649 35.2422ZM43.903 35.2659C43.4759 35.6017 43.4759 36.202 43.903 36.5378C44.5298 37.031 45.2817 36.6841 45.2817 35.9019C45.2817 35.1196 44.5298 34.7727 43.903 35.2659ZM22.9104 35.5286C24.6052 36.0101 26.2858 37.1015 27.3653 38.4214C27.8775 39.0477 28.7112 40.4919 28.7112 40.753C28.7112 40.8465 25.5243 40.8824 17.2252 40.8824H5.73908L5.92142 40.4429C6.64377 38.7018 8.15586 37.0967 9.90244 36.217C11.6706 35.3265 12.1191 35.273 17.5783 35.3033C21.5341 35.3251 22.3095 35.3579 22.9104 35.5286ZM39.3115 40.3497C38.9924 40.6687 38.9613 40.8513 39.1539 41.2741C39.2843 41.5602 39.7015 41.8199 40.0308 41.8199C40.339 41.8199 40.7816 41.2704 40.7816 40.8876C40.7816 40.1191 39.8741 39.787 39.3115 40.3497ZM43.8285 40.2964C43.4046 40.7204 43.5809 41.4971 44.1502 41.7136C44.552 41.8663 45.043 41.6668 45.2196 41.2791C45.4146 40.8512 45.3842 40.6696 45.0643 40.3497C44.7092 39.9945 44.1543 39.9706 43.8285 40.2964ZM31.6409 43.1675V43.6949H17.2853H2.92972V43.1675V42.6402H17.2853H31.6409V43.1675ZM57.7154 44.6324L57.3786 44.984H51.9085C46.5519 44.984 46.4319 44.9789 46.1295 44.741C45.9597 44.6076 45.8208 44.4494 45.8208 44.3895C45.8208 44.3241 48.2565 44.2808 51.9365 44.2808H58.0522L57.7154 44.6324ZM39.6409 45.1125C39.3566 45.2178 39.0238 45.6596 39.0238 45.9318C39.0238 46.0376 39.1331 46.2632 39.2667 46.433C39.7442 47.04 40.7816 46.7076 40.7816 45.9476C40.7816 45.3059 40.2232 44.8971 39.6409 45.1125ZM30.0003 46.8355C30.0003 47.7548 29.9532 48.2655 29.8597 48.359C29.7533 48.4654 27.9071 48.4996 22.2685 48.4996C13.9123 48.4996 14.297 48.4606 14.297 49.3085C14.297 49.6108 14.3756 49.8235 14.5436 49.9756C14.7773 50.1871 15.0685 50.2006 20.11 50.2316L25.4299 50.2644V51.1984V52.1325H17.2267H9.02352V51.206V50.2794L10.1833 50.2392C11.557 50.1915 11.8361 50.0343 11.8361 49.3085C11.8361 48.5169 11.7569 48.4996 8.12809 48.4996C6.3753 48.4996 4.8577 48.4676 4.75575 48.4285C4.60047 48.369 4.57036 48.1212 4.57036 46.905V45.4527H17.2853H30.0003V46.8355ZM57.6842 47.0968L57.3015 47.4449H51.9086C47.22 47.4449 46.4792 47.421 46.2367 47.2621C46.0831 47.1616 45.9284 47.0034 45.8928 46.9106C45.837 46.765 46.6685 46.7423 51.9475 46.7452L58.067 46.7487L57.6842 47.0968ZM57.6842 49.5577L57.3015 49.9059H51.9146H46.5276L46.1449 49.5577L45.7622 49.2097H51.9146H58.067L57.6842 49.5577ZM39.5302 50.1624C38.9666 50.4349 38.935 51.3652 39.4792 51.6566C40.3986 52.1485 41.2864 50.9059 40.4728 50.266C40.1338 49.9993 39.9169 49.9754 39.5302 50.1624ZM7.26569 51.195V52.1325H6.91413H6.56256V51.195V50.2575H6.91413H7.26569V51.195ZM27.8909 51.2027V52.1481L27.5686 52.1109C27.2514 52.0745 27.2458 52.0597 27.2121 51.1657L27.1779 50.2575H27.5344H27.8909V51.2027ZM57.8326 51.8981C57.626 52.1264 57.4716 52.1325 51.9146 52.1325C46.3575 52.1325 46.2031 52.1264 45.9965 51.8981C45.7847 51.664 45.7918 51.6637 51.9146 51.6637C58.0373 51.6637 58.0445 51.664 57.8326 51.8981Z" fill="#FFDE9F"/>
</svg>
