<svg width="60" height="55" viewBox="0 0 60 55" fill="none" xmlns="http://www.w3.org/2000/svg">
<path fill-rule="evenodd" clip-rule="evenodd" d="M29.6248 0.236781C28.7537 0.696697 28.7799 0.491652 28.7129 7.38124C28.6393 14.9721 28.8406 14.1568 26.4249 16.65C25.0522 18.0668 24.6791 18.5282 24.3323 19.2378C23.9425 20.0353 23.5375 21.3821 23.3823 22.3969L23.3181 22.8167L22.6728 22.7633C21.689 22.6817 21.0261 22.9202 20.3161 23.6115C19.8361 24.079 19.6656 24.3485 19.5111 24.8849C19.1243 26.2269 19.5078 27.3909 20.7438 28.6269C21.1942 29.0774 21.5627 29.4667 21.5627 29.4922C21.5627 29.5179 21.3386 29.539 21.0645 29.5394C20.2864 29.5404 17.4011 29.9905 16.1699 30.3029C14.2243 30.7966 12.7188 31.3694 12.3783 31.7456C12.07 32.0863 12.1618 32.6796 12.5698 32.9829C12.8907 33.2214 12.9083 33.2221 13.4491 33.0185C17.2014 31.6058 20.7517 31.0699 25.3729 31.2189C35.4312 31.5431 40.8466 35.2716 42.3157 42.8843C42.4458 43.5587 42.5857 44.6566 42.6264 45.3242L42.7008 46.538H33.2676C23.9364 46.538 23.8316 46.5405 23.5779 46.777C23.233 47.0984 23.233 47.7361 23.5779 48.0575C23.8318 48.294 23.9337 48.2965 33.6954 48.2965H43.5565L43.8042 48.8827L44.0518 49.4689H24.0732H4.09459V49.0767C4.09459 48.2532 3.63209 48.2965 12.4347 48.2965C20.2344 48.2965 20.3498 48.2931 20.6027 48.0575C20.9476 47.7361 20.9476 47.0984 20.6027 46.777C20.3501 46.5417 20.2311 46.538 12.9645 46.538H5.58301L5.65734 45.3242C5.90447 41.2844 7.29747 37.9033 9.6831 35.5525C10.2703 34.9741 10.4253 34.7471 10.4253 34.4661C10.4253 33.9888 10.0593 33.642 9.55554 33.642C8.537 33.642 6.14305 36.7208 5.134 39.328C4.42566 41.1583 3.86012 44.0656 3.86012 45.8766C3.86012 46.608 3.85871 46.6111 3.35436 46.9666C2.75681 47.3877 2.43125 48.0049 2.35926 48.8534L2.30698 49.4689H1.84788C1.16088 49.4689 0.508347 49.853 0.213382 50.431C0.00610962 50.8375 -0.0274198 51.0647 0.0174815 51.7632C0.0816094 52.7637 0.372237 53.3157 1.08163 53.7851L1.5569 54.0997H30.0037H58.4505L58.9257 53.7851C59.6351 53.3157 59.9257 52.7637 59.9899 51.7632C60.0586 50.6924 59.78 50.0614 59.0812 49.7049C58.6746 49.4975 58.3914 49.4689 56.7446 49.4689H54.8705L55.1424 48.8534C55.5833 47.8555 55.7159 47.0346 55.6517 45.7003C55.5877 44.3672 55.4471 43.934 55.0151 43.7372C54.6172 43.556 54.4565 43.5732 54.1379 43.8313C53.8703 44.0481 53.8611 44.1114 53.8611 45.7364C53.8611 47.3203 53.8427 47.4565 53.5425 48.0972C53.3673 48.4712 53.1126 48.9337 52.9764 49.1249L52.7289 49.4725L49.4389 49.4413C45.7596 49.4066 46.013 49.4737 45.8877 48.5011C45.8384 48.1172 45.6864 47.774 45.3998 47.3984L44.9835 46.8531L45.0381 45.787C45.0841 44.8885 45.197 44.41 45.7561 42.7437C46.8856 39.3771 47.348 37.1427 47.3525 35.0292C47.3536 34.4702 47.3866 33.9295 47.4257 33.8275C47.4867 33.6685 47.7784 33.642 49.4636 33.642C51.749 33.642 51.5692 33.5173 51.5756 35.1075C51.5826 36.8407 52.2536 40.4371 52.6963 41.1139C53.043 41.6438 53.9036 41.5661 54.1703 40.9808C54.2742 40.7529 54.2385 40.4526 53.9926 39.4842C53.6065 37.9641 53.369 36.3005 53.3004 34.6381L53.2473 33.3479L53.8895 33.0644C55.1577 32.5047 56.1102 31.2372 56.3868 29.741C56.4531 29.3823 56.5186 28.4209 56.5325 27.6048C56.5571 26.1501 56.5518 26.1161 56.2645 25.8812C55.9907 25.6572 55.8592 25.6454 54.2715 25.7015C52.4512 25.766 51.4627 25.9863 50.7652 26.483L50.4027 26.7411V25.8035V24.866L51.0237 24.6855C52.2793 24.3205 53.5356 23.2702 54.1308 22.088C55.1392 20.0848 54.2871 17.1247 52.0205 14.7579C51.2779 13.9824 50.617 13.712 49.4648 13.712C48.3233 13.712 47.6889 13.9718 46.9259 14.7517C44.6593 17.069 43.7868 20.0779 44.7988 22.088C45.394 23.2702 46.6503 24.3205 47.9059 24.6855L48.5269 24.866V28.3748V31.8835H47.8897C47.1544 31.8835 46.7061 32.0278 46.3176 32.3896C45.7963 32.875 45.6981 33.2406 45.592 35.0912C45.47 37.2225 45.1665 38.8666 44.5248 40.874L44.0465 42.3698L43.7785 41.3178C43.4281 39.9425 43.0095 38.8535 42.3668 37.6455L41.8445 36.6637L41.842 30.9617C41.8384 22.7126 41.6965 21.2335 40.7177 19.2378C40.3706 18.53 39.9929 18.0633 38.6236 16.65C36.2079 14.1568 36.4092 14.9721 36.3356 7.38124C36.2684 0.46879 36.2974 0.689428 35.3988 0.231037C34.9788 0.0168471 34.7155 -0.00413803 32.4996 0.000551399C30.3067 0.00524083 30.0185 0.0289224 29.6248 0.236781ZM34.5759 3.45385V5.15376H32.5242H30.4726V3.45385V1.75393H32.5242H34.5759V3.45385ZM34.5759 9.90673C34.5759 14.652 34.8232 15.3845 37.2263 17.7566C38.8295 19.3391 39.1336 19.7677 39.575 21.0663C39.8396 21.8448 39.893 22.2366 39.9423 23.7649L40.0001 25.5528H39.6273C39.1667 25.5528 38.6791 26.0048 38.6791 26.432C38.6791 26.8513 39.1669 27.3113 39.6117 27.3113H39.9687V30.8311V34.3508L38.9871 33.5568C36.2336 31.3296 32.2737 29.9243 27.7994 29.5865C27.2063 29.5418 26.7211 29.4812 26.7211 29.4519C26.7211 29.4227 26.9871 29.1597 27.3121 28.8674C27.6372 28.5751 28.0617 28.1055 28.2556 27.8236L28.6081 27.3113H32.1834H35.7589L36.0466 27.0235C36.2049 26.8652 36.3344 26.5991 36.3344 26.432C36.3344 26.265 36.2049 25.9989 36.0466 25.8406L35.7589 25.5528H32.362H28.9652L28.7709 24.8787C28.6185 24.3498 28.4462 24.0777 27.9713 23.6159C27.2931 22.9565 26.7443 22.7391 25.758 22.7391H25.1153L25.2164 22.0944C25.3382 21.3174 25.7161 20.2714 26.1058 19.6324C26.2632 19.3745 27.0337 18.5304 27.8184 17.7566C30.2258 15.3825 30.4726 14.6526 30.4726 9.90673V6.9123H32.5242H34.5759V9.90673ZM50.3365 15.6263C50.5984 15.8179 50.4945 16.0499 49.884 16.6372L49.4634 17.0419L48.9365 16.5249C48.3636 15.9625 48.3003 15.7804 48.6148 15.5971C48.9127 15.4236 50.0865 15.4435 50.3365 15.6263ZM51.1523 21.4746C51.5962 22.2343 51.5323 22.4974 50.8181 22.8512C49.0649 23.7197 46.589 22.5921 46.1929 20.7448C46.0293 19.9822 46.1877 19.1721 46.7198 18.0497L47.1367 17.1704L48.983 19.0462C49.9985 20.0779 50.9747 21.1707 51.1523 21.4746ZM52.3441 18.3252C52.6624 19.0205 52.9189 20.2011 52.8121 20.4794C52.7615 20.6113 52.6476 20.5234 52.3799 20.1454C52.1799 19.8632 51.7211 19.3293 51.3603 18.9589L50.7043 18.2855L51.2191 17.7608C51.8107 17.1581 51.8095 17.1576 52.3441 18.3252ZM23.3494 24.9666C23.6631 25.268 23.9462 25.4355 24.1419 25.4355C24.3376 25.4355 24.6207 25.268 24.9344 24.9666C25.3337 24.5829 25.5057 24.4977 25.8801 24.4977C26.7421 24.4977 27.3302 25.3192 27.0903 26.1883C26.9126 26.8316 26.5595 27.2407 25.3051 28.2566L24.1419 29.1986L22.9787 28.2566C21.7243 27.2407 21.3711 26.8316 21.1935 26.1883C20.9536 25.3192 21.5417 24.4977 22.4036 24.4977C22.7781 24.4977 22.9501 24.5829 23.3494 24.9666ZM54.8007 27.9268C54.7718 28.2008 54.7191 28.7323 54.6837 29.1078C54.5701 30.3091 53.8786 31.2558 52.8748 31.5844C52.5791 31.6813 51.9019 31.7958 51.3699 31.8388L50.4027 31.9173V31.1053C50.4027 28.5792 51.5246 27.4733 54.1227 27.4384L54.8532 27.4285L54.8007 27.9268ZM58.2575 51.5991C58.2575 51.8036 58.1701 52.0674 58.0635 52.1853C57.8766 52.3919 56.8514 52.3998 30.0241 52.3998C4.27818 52.3998 2.16254 52.3851 1.9643 52.2057C1.83792 52.0914 1.74987 51.8506 1.74987 51.6195V51.2274H30.0037H58.2575V51.5991Z" fill="#FFDE9F"/>
</svg>
