<svg width="24" height="24" viewBox="0 0 24 24" fill="none" xmlns="http://www.w3.org/2000/svg">
<mask id="mask0_83_648" style="mask-type:alpha" maskUnits="userSpaceOnUse" x="0" y="0" width="24" height="24">
<rect width="24" height="24" fill="white"/>
</mask>
<g mask="url(#mask0_83_648)">
<path fill-rule="evenodd" clip-rule="evenodd" d="M13.5 4C13.5 3.44772 13.0523 3 12.5 3C11.9477 3 11.5 3.44772 11.5 4V9.58577L7.55022 5.636C7.1597 5.24547 6.52653 5.24547 6.13601 5.636C5.74549 6.02652 5.74549 6.65968 6.13601 7.05021L10.0858 11H4.5C3.94772 11 3.5 11.4477 3.5 12C3.5 12.5523 3.94772 13 4.5 13H10.0857L6.136 16.9497C5.74547 17.3402 5.74547 17.9734 6.136 18.3639C6.52652 18.7545 7.15968 18.7545 7.55021 18.3639L11.5 14.4141V20C11.5 20.5523 11.9477 21 12.5 21C13.0523 21 13.5 20.5523 13.5 20V14.4142L17.4497 18.3639C17.8402 18.7544 18.4734 18.7544 18.8639 18.3639C19.2545 17.9734 19.2545 17.3402 18.8639 16.9497L14.9142 13H20.5C21.0523 13 21.5 12.5523 21.5 12C21.5 11.4477 21.0523 11 20.5 11H14.9141L18.8639 7.05022C19.2544 6.6597 19.2544 6.02653 18.8639 5.63601C18.4734 5.24548 17.8402 5.24548 17.4497 5.63601L13.5 9.58571V4Z" fill="#FFDE9F"/>
</g>
</svg>
