<svg width="24" height="24" viewBox="0 0 24 24" fill="none" xmlns="http://www.w3.org/2000/svg">
<mask id="mask0_83_815" style="mask-type:alpha" maskUnits="userSpaceOnUse" x="0" y="0" width="24" height="24">
<rect width="24" height="24" fill="white"/>
</mask>
<g mask="url(#mask0_83_815)">
<path fill-rule="evenodd" clip-rule="evenodd" d="M9.877 15.2062C6.033 15.2062 2.75 15.7872 2.75 18.1152C2.75 20.4432 6.013 21.0452 9.877 21.0452C13.722 21.0452 17.004 20.4632 17.004 18.1362C17.004 15.8092 13.742 15.2062 9.877 15.2062Z" stroke="#FFDE9F" stroke-width="2" stroke-linecap="round" stroke-linejoin="round"/>
<path fill-rule="evenodd" clip-rule="evenodd" d="M9.87758 11.8859C12.4006 11.8859 14.4456 9.84088 14.4456 7.31788C14.4456 4.79488 12.4006 2.74988 9.87758 2.74988C7.35558 2.74988 5.31058 4.79488 5.31058 7.31788C5.30158 9.83188 7.33158 11.8769 9.84658 11.8859H9.87758Z" stroke="#FFDE9F" stroke-width="2" stroke-linecap="round" stroke-linejoin="round"/>
<path d="M19.2031 8.66907V12.6791" stroke="#FFDE9F" stroke-width="2" stroke-linecap="round" stroke-linejoin="round"/>
<path d="M21.2502 10.674H17.1602" stroke="#FFDE9F" stroke-width="2" stroke-linecap="round" stroke-linejoin="round"/>
</g>
</svg>
